<?xml version="1.0" encoding="UTF-8" standalone="no"?><!-- Generator: Gravit.io --><svg xmlns="http://www.w3.org/2000/svg" xmlns:xlink="http://www.w3.org/1999/xlink" style="isolation:isolate" viewBox="0 0 300 300" width="300pt" height="300pt"><defs><clipPath id="_clipPath_lIsWUvQjS6BOo1X1jScWbMnj9ROp5N3y"><rect width="300" height="300"/></clipPath></defs><g clip-path="url(#_clipPath_lIsWUvQjS6BOo1X1jScWbMnj9ROp5N3y)"><circle vector-effect="non-scaling-stroke" cx="152.8533131264802" cy="177.6698194717074" r="109.85331312648023" fill="rgb(40,53,147)"/><line x1="43" y1="177.67" x2="43" y2="21.562" vector-effect="non-scaling-stroke" stroke-width="0.5" stroke="rgb(0,0,0)" stroke-linejoin="miter" stroke-linecap="square" stroke-miterlimit="3"/><line x1="47.13" y1="33.126" x2="258.061" y2="33.126" vector-effect="non-scaling-stroke" stroke-width="1" stroke="rgb(0,0,0)" stroke-linejoin="miter" stroke-linecap="square" stroke-miterlimit="3"/><line x1="262" y1="21.678" x2="262.248" y2="177.67" vector-effect="non-scaling-stroke" stroke-width="0.5" stroke="rgb(0,0,0)" stroke-linejoin="miter" stroke-linecap="square" stroke-miterlimit="3"/><text transform="matrix(0.826,0,0,0.826,91.732,30.133)" style="font-family:'Open Sans';font-weight:400;font-size:20px;font-style:normal;fill:#000000;stroke:none;">Outer Diameter</text><text transform="matrix(0.826,0,0,0.826,95.036,55.9)" style="font-family:'Open Sans';font-weight:400;font-size:20px;font-style:normal;fill:#000000;stroke:none;">Wall Thickness</text><polygon points="50.293,28.956,50.153,37.296,43,33.004" fill="rgb(0,0,0)"/><polygon points="270,54.601,269.86,62.942,262.707,58.65" fill="rgb(0,0,0)"/><polygon points="230.634,62.942,230.775,54.601,237.928,58.893" fill="rgb(0,0,0)"/><polygon points="255.413,37.296,255.554,28.956,262.707,33.247" fill="rgb(0,0,0)"/><line x1="237.928" y1="177.67" x2="237.928" y2="46.341" vector-effect="non-scaling-stroke" stroke-width="0.5" stroke="rgb(0,0,0)" stroke-linejoin="miter" stroke-linecap="square" stroke-miterlimit="3"/><line x1="95.862" y1="58.893" x2="262.459" y2="58.65" vector-effect="non-scaling-stroke" stroke-width="1" stroke="rgb(0,0,0)" stroke-linejoin="miter" stroke-linecap="square" stroke-miterlimit="3"/><ellipse vector-effect="non-scaling-stroke" cx="152.85331312648032" cy="178.08280185188215" rx="85.07437031599602" ry="85.48735269617075" fill="rgb(255,255,255)"/><line x1="276" y1="177.67" x2="30" y2="177.67" vector-effect="non-scaling-stroke" stroke-width="2" stroke-dasharray="5,3" stroke="rgb(213,49,49)" stroke-linejoin="bevel" stroke-linecap="butt" stroke-miterlimit="3"/></g></svg>