<?xml version="1.0" encoding="UTF-8" standalone="no"?><!-- Generator: Gravit.io --><svg xmlns="http://www.w3.org/2000/svg" xmlns:xlink="http://www.w3.org/1999/xlink" style="isolation:isolate" viewBox="0 0 300 300" width="300pt" height="300pt"><defs><clipPath id="_clipPath_P9JxVjWGyUphVpkmYJwOdadrQtqjh9Lv"><rect width="300" height="300"/></clipPath></defs><g clip-path="url(#_clipPath_P9JxVjWGyUphVpkmYJwOdadrQtqjh9Lv)"><rect x="67.423" y="47.239" width="159" height="212" transform="matrix(1,0,0,1,0,0)" fill="rgb(40,53,147)"/><rect x="97.923" y="77.239" width="99" height="152" transform="matrix(1,0,0,1,0,0)" fill="rgb(255,255,255)"/><polygon points="74.716,26.239,74.576,34.58,67.423,30.288" fill="rgb(0,0,0)"/><polygon points="219.13,34.58,219.27,26.239,226.423,30.531" fill="rgb(0,0,0)"/><line x1="67.423" y1="47.239" x2="67.423" y2="18.239" vector-effect="non-scaling-stroke" stroke-width="0.5" stroke="rgb(0,0,0)" stroke-linejoin="miter" stroke-linecap="square" stroke-miterlimit="3"/><line x1="226.423" y1="47.239" x2="226.423" y2="18.239" vector-effect="non-scaling-stroke" stroke-width="0.5" stroke="rgb(0,0,0)" stroke-linejoin="miter" stroke-linecap="square" stroke-miterlimit="3"/><line x1="71.07" y1="30.41" x2="222.423" y2="30.41" vector-effect="non-scaling-stroke" stroke-width="1" stroke="rgb(0,0,0)" stroke-linejoin="miter" stroke-linecap="square" stroke-miterlimit="3"/><text transform="matrix(0.826,0,0,0.826,124.173,27.417)" style="font-family:'Open Sans';font-weight:400;font-size:20px;font-style:normal;fill:#000000;stroke:none;">Width</text><text transform="matrix(0,0.826,-0.826,0,249.756,119.384)" style="font-family:'Open Sans';font-weight:400;font-size:20px;font-style:normal;fill:#000000;stroke:none;">Height</text><line x1="255.423" y1="47.939" x2="226.423" y2="47.939" vector-effect="non-scaling-stroke" stroke-width="0.5" stroke="rgb(0,0,0)" stroke-linejoin="miter" stroke-linecap="square" stroke-miterlimit="3"/><line x1="255.423" y1="259.039" x2="226.423" y2="259.039" vector-effect="non-scaling-stroke" stroke-width="0.5" stroke="rgb(0,0,0)" stroke-linejoin="miter" stroke-linecap="square" stroke-miterlimit="3"/><polygon points="246.764,54.533,238.423,54.392,242.715,47.239" fill="rgb(0,0,0)"/><polygon points="238.423,251.739,246.764,251.88,242.472,259.033" fill="rgb(0,0,0)"/><line x1="242.593" y1="50.886" x2="242.593" y2="251.739" vector-effect="non-scaling-stroke" stroke-width="1" stroke="rgb(0,0,0)" stroke-linejoin="miter" stroke-linecap="square" stroke-miterlimit="3"/><text transform="matrix(0.826,0,0,0.826,55,277.896)" style="font-family:'Open Sans';font-weight:400;font-size:20px;font-style:normal;fill:#000000;stroke:none;">Wall Thickness</text><polygon points="233.716,276.475,233.576,284.816,226.423,280.524" fill="rgb(0,0,0)"/><polygon points="189.63,284.937,189.77,276.597,196.923,280.889" fill="rgb(0,0,0)"/><line x1="55.826" y1="280.889" x2="226.361" y2="280.645" vector-effect="non-scaling-stroke" stroke-width="1" stroke="rgb(0,0,0)" stroke-linejoin="miter" stroke-linecap="square" stroke-miterlimit="3"/><line x1="197.1" y1="229.239" x2="197.1" y2="290.239" vector-effect="non-scaling-stroke" stroke-width="0.5" stroke="rgb(0,0,0)" stroke-linejoin="miter" stroke-linecap="square" stroke-miterlimit="3"/><line x1="226.15" y1="229.239" x2="226.15" y2="290.239" vector-effect="non-scaling-stroke" stroke-width="0.5" stroke="rgb(0,0,0)" stroke-linejoin="miter" stroke-linecap="square" stroke-miterlimit="3"/><line x1="233.716" y1="150" x2="59" y2="150" vector-effect="non-scaling-stroke" stroke-width="2" stroke-dasharray="5,3" stroke="rgb(213,49,49)" stroke-linejoin="bevel" stroke-linecap="butt" stroke-miterlimit="3"/></g></svg>